<svg width="20" height="20" viewBox="0 0 20 20" fill="none" xmlns="http://www.w3.org/2000/svg">
<g clip-path="url(#clip0_40_69)">
<path d="M11.05 3.00002L4.20832 10.2417C3.94999 10.5167 3.69999 11.0584 3.64999 11.4334L3.34165 14.1334C3.23332 15.1084 3.93332 15.775 4.89999 15.6084L7.58332 15.15C7.95832 15.0834 8.48332 14.8084 8.74166 14.525L15.5833 7.28335C16.7667 6.03335 17.3 4.60835 15.4583 2.86668C13.625 1.14168 12.2333 1.75002 11.05 3.00002Z" stroke="white" stroke-miterlimit="10" stroke-linecap="round" stroke-linejoin="round"/>
<path d="M9.90833 4.20825C10.083 5.32563 10.6238 6.35336 11.4458 7.13012C12.2679 7.90688 13.3245 8.38869 14.45 8.49992M2.5 18.3333H17.5" stroke="white" stroke-miterlimit="10" stroke-linecap="round" stroke-linejoin="round"/>
</g>
<defs>
<clipPath id="clip0_40_69">
<rect width="20" height="20" fill="white"/>
</clipPath>
</defs>
</svg>
