<svg width="22" height="22" viewBox="0 0 22 22" fill="none" xmlns="http://www.w3.org/2000/svg">
<path d="M21 4.98C17.3 4.65 13.5778 4.48 9.86667 4.48C7.66667 4.48 5.46667 4.58 3.26667 4.78L1 4.98M7.11111 3.97L7.35556 2.66C7.53333 1.71 7.66667 1 9.54445 1H12.4556C14.3333 1 14.4778 1.75 14.6444 2.67L14.8889 3.97M18.6111 8.14L17.8889 18.21C17.7667 19.78 17.6667 21 14.5667 21H7.43333C4.33333 21 4.23333 19.78 4.11111 18.21L3.38889 8.14M9.14445 15.5H12.8444M8.22222 11.5H13.7778" stroke="#F4E9E9" stroke-linecap="round" stroke-linejoin="round"/>
</svg>
